<svg width="36" height="36" viewBox="0 0 36 36" fill="none" xmlns="http://www.w3.org/2000/svg">
<path d="M22.4997 10.395C22.2212 10.395 21.9542 10.5056 21.7572 10.7026C21.5603 10.8995 21.4497 11.1665 21.4497 11.445V16.95C21.4497 17.2285 21.5603 17.4956 21.7572 17.6925C21.9542 17.8894 22.2212 18 22.4997 18H24.5997C24.8782 18 25.1452 17.8894 25.3422 17.6925C25.5391 17.4956 25.6497 17.2285 25.6497 16.95V11.445C25.6497 11.1665 25.5391 10.8995 25.3422 10.7026C25.1452 10.5056 24.8782 10.395 24.5997 10.395H22.4997Z" fill="#69C0FF"/>
<path d="M17.9999 0C14.6529 0.00473351 11.3735 0.942592 8.53003 2.70822C5.68658 4.47385 3.39174 6.99731 1.90327 9.99517C0.414807 12.993 -0.208324 16.3465 0.103874 19.679C0.416073 23.0114 1.65124 26.1908 3.67062 28.86C5.69 31.5292 8.41362 33.5826 11.5355 34.7893C14.6575 35.9961 18.054 36.3085 21.3437 35.6915C24.6333 35.0745 27.6858 33.5524 30.1582 31.2964C32.6307 29.0403 34.4251 26.1396 35.3399 22.92C35.3329 22.8904 35.3329 22.8596 35.3399 22.83C35.3399 22.65 35.4449 22.485 35.4899 22.305C35.7449 20.805 34.3949 20.73 33.9899 20.73H33.4949C33.9616 21.319 34.2154 22.0485 34.2149 22.8C34.2149 23.7031 33.8562 24.5691 33.2176 25.2077C32.5791 25.8463 31.713 26.205 30.8099 26.205C30.2885 26.2058 29.7743 26.0824 29.3099 25.845C27.4533 28.5226 24.7082 30.456 21.5617 31.3021C18.4152 32.1483 15.0706 31.8526 12.1214 30.4674C9.17222 29.0822 6.809 26.6971 5.45105 23.7352C4.09309 20.7734 3.82818 17.4263 4.70331 14.2877C5.57844 11.1491 7.53704 8.42193 10.2316 6.59005C12.9262 4.75817 16.1826 3.93999 19.4231 4.28065C22.6635 4.62132 25.6785 6.09881 27.9333 8.451C30.188 10.8032 31.5366 13.878 31.7399 17.13C31.7434 17.2517 31.772 17.3713 31.8238 17.4814C31.8756 17.5915 31.9496 17.6898 32.0411 17.77C32.1326 17.8503 32.2396 17.9108 32.3556 17.9478C32.4715 17.9847 32.5939 17.9974 32.7149 17.985H35.1899C35.4599 17.985 35.9249 17.79 35.9399 16.995C35.6834 12.4078 33.6825 8.09224 30.3471 4.93254C27.0117 1.77284 22.5943 0.00814829 17.9999 0Z" fill="#69C0FF"/>
<path d="M30.6452 19.8896L16.2152 20.6846C16.3468 21.0507 16.4178 21.4357 16.4252 21.8246C16.4268 22.4449 16.2567 23.0535 15.9337 23.583C15.6107 24.1125 15.1474 24.5422 14.5952 24.8246C15.1212 24.9065 15.6529 24.9466 16.1852 24.9446H16.9202L30.6452 25.7397C31.417 25.7397 32.1572 25.4331 32.7029 24.8873C33.2486 24.3416 33.5552 23.6014 33.5552 22.8296C33.5552 22.0579 33.2486 21.3177 32.7029 20.772C32.1572 20.2262 31.417 19.8896 30.6452 19.8896ZM30.6452 24.4496C30.3189 24.4496 29.9999 24.2929 29.7285 24.1116C29.4572 23.9303 29.2457 23.6726 29.1208 23.3711C28.9959 23.0696 28.9632 22.7378 29.0269 22.4178C29.0906 22.0977 29.2477 21.8037 29.4785 21.5729C29.7092 21.3422 30.0032 21.185 30.3233 21.1214C30.6434 21.0577 30.9751 21.0904 31.2766 21.2152C31.5781 21.3401 31.8358 21.5516 32.0171 21.823C32.1984 22.0943 32.2952 22.4133 32.2952 22.7397C32.3033 22.9613 32.2666 23.1824 32.1873 23.3895C32.108 23.5967 31.9877 23.7857 31.8337 23.9454C31.6796 24.105 31.495 24.2319 31.2908 24.3186C31.0866 24.4052 30.867 24.4498 30.6452 24.4496Z" fill="#48C54E"/>
<path d="M15.9899 21.8246C15.9899 21.249 15.8193 20.6864 15.4995 20.2078C15.1797 19.7293 14.7253 19.3563 14.1935 19.1361C13.6618 18.9158 13.0767 18.8582 12.5122 18.9705C11.9477 19.0827 11.4292 19.3599 11.0222 19.7669C10.6153 20.1738 10.3381 20.6924 10.2258 21.2568C10.1136 21.8213 10.1712 22.4064 10.3914 22.9382C10.6117 23.4699 10.9847 23.9244 11.4632 24.2441C11.9418 24.5639 12.5044 24.7345 13.0799 24.7345C13.8517 24.7345 14.5919 24.428 15.1376 23.8822C15.6833 23.3365 15.9899 22.5963 15.9899 21.8246ZM13.0799 23.4746C12.7536 23.4746 12.4346 23.3778 12.1632 23.1965C11.8919 23.0152 11.6804 22.7575 11.5555 22.456C11.4306 22.1545 11.398 21.8227 11.4616 21.5027C11.5253 21.1826 11.6824 20.8886 11.9132 20.6578C12.144 20.4271 12.438 20.2699 12.758 20.2063C13.0781 20.1426 13.4099 20.1753 13.7114 20.3001C14.0129 20.425 14.2705 20.6365 14.4518 20.9079C14.6331 21.1792 14.7299 21.4982 14.7299 21.8246C14.7299 22.2622 14.5561 22.6818 14.2467 22.9913C13.9372 23.3007 13.5175 23.4746 13.0799 23.4746Z" fill="#48C54E"/>
<path d="M14.1147 10.395H13.4997V11.28C13.7588 11.4102 13.9746 11.6126 14.121 11.8629C14.2674 12.1131 14.3382 12.4004 14.3247 12.69C14.3708 12.8736 14.3744 13.0653 14.3353 13.2506C14.2962 13.4358 14.2154 13.6097 14.0989 13.7589C13.9825 13.9082 13.8336 14.029 13.6635 14.112C13.4933 14.1951 13.3065 14.2383 13.1172 14.2383C12.9279 14.2383 12.7411 14.1951 12.5709 14.112C12.4008 14.029 12.2519 13.9082 12.1355 13.7589C12.0191 13.6097 11.9382 13.4358 11.8991 13.2506C11.86 13.0653 11.8636 12.8736 11.9097 12.69C11.8976 12.3988 11.9706 12.1104 12.1198 11.8599C12.2689 11.6095 12.4878 11.408 12.7497 11.28V10.395H11.9997C11.7212 10.395 11.4542 10.5056 11.2572 10.7026C11.0603 10.8995 10.9497 11.1665 10.9497 11.445V19.23C11.5397 18.7462 12.2792 18.4818 13.0422 18.4818C13.8052 18.4818 14.5447 18.7462 15.1347 19.23V11.445C15.1348 11.1717 15.0283 10.909 14.8378 10.713C14.6474 10.5169 14.388 10.4028 14.1147 10.395Z" fill="#48C54E"/>
</svg>
